<?plantuml 1.2026.2?><svg xmlns="http://www.w3.org/2000/svg" xmlns:xlink="http://www.w3.org/1999/xlink" contentStyleType="text/css" data-diagram-type="DESCRIPTION" height="616px" preserveAspectRatio="none" style="width:1318px;height:616px;background:#FFFFFF;" version="1.1" viewBox="0 0 1318 616" width="1318px" zoomAndPan="magnify"><title>Deployment &#8212; examples (local Docker, edge, optional cloud)</title><defs/><g><g class="title" data-source-line="3"><text fill="#000000" font-family="sans-serif" font-size="14" font-weight="bold" lengthAdjust="spacing" textLength="481.0928" x="411.5505" y="22.9951">Deployment &#8212; examples (local Docker, edge, optional cloud)</text></g><!--cluster Dev--><g class="cluster" data-qualified-name="Dev" data-source-line="5" id="ent0002"><polygon fill="none" points="16,53.2969,26,43.2969,526,43.2969,526,476.9269,516,486.9269,16,486.9269,16,53.2969" style="stroke:#181818;stroke-width:1;"/><line style="stroke:#181818;stroke-width:1;" x1="516" x2="526" y1="53.2969" y2="43.2969"/><line style="stroke:#181818;stroke-width:1;" x1="16" x2="516" y1="53.2969" y2="53.2969"/><line style="stroke:#181818;stroke-width:1;" x1="516" x2="516" y1="53.2969" y2="486.9269"/><text fill="#000000" font-family="sans-serif" font-size="14" font-weight="bold" lengthAdjust="spacing" textLength="176.3535" x="178.8232" y="69.292">Development machine</text></g><!--cluster Pi--><g class="cluster" data-qualified-name="Pi" data-source-line="12" id="ent0007"><polygon fill="none" points="550,195.8869,560,185.8869,838,185.8869,838,465.2769,828,475.2769,550,475.2769,550,195.8869" style="stroke:#181818;stroke-width:1;"/><line style="stroke:#181818;stroke-width:1;" x1="828" x2="838" y1="195.8869" y2="185.8869"/><line style="stroke:#181818;stroke-width:1;" x1="550" x2="828" y1="195.8869" y2="195.8869"/><line style="stroke:#181818;stroke-width:1;" x1="828" x2="828" y1="195.8869" y2="475.2769"/><text fill="#000000" font-family="sans-serif" font-size="14" font-weight="bold" lengthAdjust="spacing" textLength="168.3076" x="605.8462" y="211.882">Raspberry Pi / PiCarX</text></g><!--cluster Cloud--><g class="cluster" data-qualified-name="Cloud" data-source-line="17" id="ent0010"><polygon fill="none" points="870,365.9769,880,355.9769,1167,355.9769,1167,473.2769,1157,483.2769,870,483.2769,870,365.9769" style="stroke:#181818;stroke-width:1;"/><line style="stroke:#181818;stroke-width:1;" x1="1157" x2="1167" y1="365.9769" y2="355.9769"/><line style="stroke:#181818;stroke-width:1;" x1="870" x2="1157" y1="365.9769" y2="365.9769"/><line style="stroke:#181818;stroke-width:1;" x1="1157" x2="1157" y1="365.9769" y2="483.2769"/><text fill="#000000" font-family="sans-serif" font-size="14" font-weight="bold" lengthAdjust="spacing" textLength="127.3125" x="950.8438" y="381.972">Cloud (optional)</text><text fill="#000000" font-family="sans-serif" font-size="14" font-weight="bold" lengthAdjust="spacing" textLength="221.5938" x="903.7031" y="398.2689">GCP Cloud Run / App Engine</text></g><!--entity DC--><g class="entity" data-qualified-name="Dev.DC" data-source-line="6" id="ent0003"><rect fill="#F1F1F1" height="55.5938" rx="2.5" ry="2.5" style="stroke:#181818;stroke-width:0.5;" width="225.6035" x="79.2" y="83.2969"/><polygon fill="#F1F1F1" points="287.8035,88.2969,287.8035,102.2969,299.8035,102.2969,299.8035,94.2969,293.8035,88.2969,287.8035,88.2969" style="stroke:#181818;stroke-width:0.5;"/><line style="stroke:#181818;stroke-width:0.5;" x1="293.8035" x2="293.8035" y1="88.2969" y2="94.2969"/><line style="stroke:#181818;stroke-width:0.5;" x1="299.8035" x2="293.8035" y1="94.2969" y2="94.2969"/><text fill="#000000" font-family="sans-serif" font-size="14" lengthAdjust="spacing" textLength="115.3359" x="89.2" y="109.292">docker compose</text><text fill="#000000" font-family="sans-serif" font-size="14" lengthAdjust="spacing" textLength="195.6035" x="89.2" y="125.5889">(code/docker-compose.yml)</text></g><!--entity Cfe--><g class="entity" data-qualified-name="Dev.Cfe" data-source-line="7" id="ent0004"><polygon fill="#F1F1F1" points="31.61,232.3869,41.61,222.3869,202.3815,222.3869,202.3815,274.9806,192.3815,284.9806,31.61,284.9806,31.61,232.3869" style="stroke:#181818;stroke-width:0.5;"/><line style="stroke:#181818;stroke-width:0.5;" x1="192.3815" x2="202.3815" y1="232.3869" y2="222.3869"/><line style="stroke:#181818;stroke-width:0.5;" x1="31.61" x2="192.3815" y1="232.3869" y2="232.3869"/><line style="stroke:#181818;stroke-width:0.5;" x1="192.3815" x2="192.3815" y1="232.3869" y2="284.9806"/><text fill="#000000" font-family="sans-serif" font-size="14" lengthAdjust="spacing" textLength="130.7715" x="46.61" y="255.382">frontend container</text><text fill="#000000" font-family="sans-serif" font-size="14" lengthAdjust="spacing" textLength="69.8906" x="46.61" y="271.6789">:3000&#8594;80</text></g><!--entity Cbe--><g class="entity" data-qualified-name="Dev.Cbe" data-source-line="8" id="ent0005"><polygon fill="#F1F1F1" points="192.79,418.3369,202.79,408.3369,363.2197,408.3369,363.2197,460.9306,353.2197,470.9306,192.79,470.9306,192.79,418.3369" style="stroke:#181818;stroke-width:0.5;"/><line style="stroke:#181818;stroke-width:0.5;" x1="353.2197" x2="363.2197" y1="418.3369" y2="408.3369"/><line style="stroke:#181818;stroke-width:0.5;" x1="192.79" x2="353.2197" y1="418.3369" y2="418.3369"/><line style="stroke:#181818;stroke-width:0.5;" x1="353.2197" x2="353.2197" y1="418.3369" y2="470.9306"/><text fill="#000000" font-family="sans-serif" font-size="14" lengthAdjust="spacing" textLength="130.4297" x="207.79" y="441.332">backend container</text><text fill="#000000" font-family="sans-serif" font-size="14" lengthAdjust="spacing" textLength="40.3457" x="207.79" y="457.6289">:8080</text></g><!--entity Vol--><g class="entity" data-qualified-name="Dev.Vol" data-source-line="9" id="ent0006"><rect fill="#F1F1F1" height="39.2969" rx="2.5" ry="2.5" style="stroke:#181818;stroke-width:0.5;" width="235.3994" x="274.3" y="234.0369"/><polygon fill="#F1F1F1" points="492.6994,239.0369,492.6994,253.0369,504.6994,253.0369,504.6994,245.0369,498.6994,239.0369,492.6994,239.0369" style="stroke:#181818;stroke-width:0.5;"/><line style="stroke:#181818;stroke-width:0.5;" x1="498.6994" x2="498.6994" y1="239.0369" y2="245.0369"/><line style="stroke:#181818;stroke-width:0.5;" x1="504.6994" x2="498.6994" y1="245.0369" y2="245.0369"/><text fill="#000000" font-family="sans-serif" font-size="14" lengthAdjust="spacing" textLength="205.3994" x="284.3" y="260.032">volume backend &#8594; ./backend</text></g><!--entity Agen--><g class="entity" data-qualified-name="Pi.Agen" data-source-line="13" id="ent0008"><rect fill="#F1F1F1" height="39.2969" rx="2.5" ry="2.5" style="stroke:#181818;stroke-width:0.5;" width="255.0596" x="566.47" y="419.9769"/><polygon fill="#F1F1F1" points="804.5296,424.9769,804.5296,438.9769,816.5296,438.9769,816.5296,430.9769,810.5296,424.9769,804.5296,424.9769" style="stroke:#181818;stroke-width:0.5;"/><line style="stroke:#181818;stroke-width:0.5;" x1="810.5296" x2="810.5296" y1="424.9769" y2="430.9769"/><line style="stroke:#181818;stroke-width:0.5;" x1="816.5296" x2="810.5296" y1="430.9769" y2="430.9769"/><text fill="#000000" font-family="sans-serif" font-size="14" lengthAdjust="spacing" textLength="225.0596" x="576.47" y="445.972">venv + publish_picarx_dht22.py</text></g><!--entity Sysd--><g class="entity" data-qualified-name="Pi.Sysd" data-source-line="14" id="ent0009"><rect fill="#F1F1F1" height="55.5938" rx="2.5" ry="2.5" style="stroke:#181818;stroke-width:0.5;" width="147.4414" x="618.28" y="225.8869"/><polygon fill="#F1F1F1" points="748.7214,230.8869,748.7214,244.8869,760.7214,244.8869,760.7214,236.8869,754.7214,230.8869,748.7214,230.8869" style="stroke:#181818;stroke-width:0.5;"/><line style="stroke:#181818;stroke-width:0.5;" x1="754.7214" x2="754.7214" y1="230.8869" y2="236.8869"/><line style="stroke:#181818;stroke-width:0.5;" x1="760.7214" x2="754.7214" y1="236.8869" y2="236.8869"/><text fill="#000000" font-family="sans-serif" font-size="14" lengthAdjust="spacing" textLength="91.0752" x="628.28" y="251.882">systemd unit</text><text fill="#000000" font-family="sans-serif" font-size="14" lengthAdjust="spacing" textLength="117.4414" x="628.28" y="268.1789">(local or remote)</text></g><!--entity Img--><g class="entity" data-qualified-name="Cloud.Img" data-source-line="18" id="ent0011"><rect fill="#F1F1F1" height="39.2969" rx="2.5" ry="2.5" style="stroke:#181818;stroke-width:0.5;" width="225.8018" x="894.1" y="419.9769"/><polygon fill="#F1F1F1" points="1102.9018,424.9769,1102.9018,438.9769,1114.9018,438.9769,1114.9018,430.9769,1108.9018,424.9769,1102.9018,424.9769" style="stroke:#181818;stroke-width:0.5;"/><line style="stroke:#181818;stroke-width:0.5;" x1="1108.9018" x2="1108.9018" y1="424.9769" y2="430.9769"/><line style="stroke:#181818;stroke-width:0.5;" x1="1114.9018" x2="1108.9018" y1="430.9769" y2="430.9769"/><text fill="#000000" font-family="sans-serif" font-size="14" lengthAdjust="spacing" textLength="195.8018" x="904.1" y="445.972">Docker images / static build</text></g><!--entity Net--><g class="entity" data-qualified-name="Net" data-source-line="21" id="ent0012"><path d="M603.0484,567.604 C607.8688,561.673 612.8239,561.2346 616.8814,568.4093 C620.6012,562.3803 625.7561,562.9163 629.6988,568.1558 C633.6946,561.6404 638.6105,562.362 643.1149,567.5741 C646.8059,561.5481 652.2723,562.0412 656.237,567.2545 C658.6903,559.3392 664.1621,559.8892 669.2028,564.5966 C672.7708,559.0518 678.2698,559.1019 680.9432,565.4778 C684.7498,557.6745 689.918,558.3204 695.4676,563.5329 C700.8616,557.9511 705.5256,558.497 709.5755,565.0904 C713.434,559.1602 717.8409,560.2187 721.1529,565.6475 C725.4566,558.7997 730.7791,558.9166 734.3798,566.3008 C738.4341,559.7907 744.0477,561.2839 747.4982,566.9514 C751.2988,560.1856 757.6199,560.6624 761.3503,567.0253 C765.8079,560.873 771.1006,561.0373 774.7455,567.8641 C777.7277,561.42 783.5082,560.7 787.337,567.0296 C797.5104,570.078 799.5263,575.1674 792.9729,583.8277 C798.7333,591.0134 796.9881,596.8724 787.5248,598.3449 C784.0905,604.0678 780.1934,604.6558 775.8207,599.3399 C771.794,606.911 764.2241,606.9611 760.2344,599.3022 C757.0259,605.943 751.846,606.5536 747.2225,600.7861 C743.4244,606.9399 738.0741,605.8829 735.416,599.6955 C731.9564,605.8589 724.6542,606.7939 720.7159,600.2493 C717.2958,606.2501 712.5448,607.1526 708.5948,600.7679 C705.5059,608.1857 700.8805,608.3761 695.6025,602.9889 C690.3473,608.492 686.0793,608.2213 682.3213,601.3783 C676.9494,608.1541 672.7793,606.5361 668.4077,600.308 C663.3931,607.5049 659.185,606.0877 654.8614,599.6229 C650.9241,605.4772 646.7046,606.351 641.9852,600.4819 C637.4864,606.3395 632.4551,605.8965 628.1804,600.2139 C624.3493,606.0039 618.1198,605.0017 615.3876,599.0196 C611.2437,605.4385 607.5967,605.1474 603.4854,598.9887 C594.22,598.3035 590.8742,592.7169 595.0389,584.3058 C589.4233,575.7343 593.8893,569.0902 603.0484,567.604" fill="#F1F1F1" style="stroke:#181818;stroke-width:0.5;"/><text fill="#000000" font-family="sans-serif" font-size="14" lengthAdjust="spacing" textLength="171.1309" x="608.43" y="586.822">Network (LAN / Internet)</text></g><g class="entity" data-qualified-name="GMN21" data-source-line="34" id="ent0022"><path d="M1002.81,554.2769 L1002.81,609.6753 L1311.1938,609.6753 L1311.1938,564.2769 L1301.1938,554.2769 L1002.81,554.2769" fill="#FEFFDD" style="stroke:#181818;stroke-width:0.5;"/><path d="M1301.1938,554.2769 L1301.1938,564.2769 L1311.1938,564.2769 L1301.1938,554.2769" fill="#FEFFDD" style="stroke:#181818;stroke-width:1;"/><text fill="#000000" font-family="sans-serif" font-size="13" lengthAdjust="spacing" textLength="287.3838" x="1008.81" y="571.3438">Frontend and backend may ship separately;</text><text fill="#000000" font-family="sans-serif" font-size="13" lengthAdjust="spacing" textLength="135.2876" x="1008.81" y="586.4766">the Pi publisher uses</text><text fill="#000000" font-family="sans-serif" font-size="13" font-weight="bold" lengthAdjust="spacing" textLength="98.7061" x="1148.2299" y="586.4766">PUBLISH_URL</text><text fill="#000000" font-family="sans-serif" font-size="13" lengthAdjust="spacing" textLength="253.0938" x="1008.81" y="601.6094">pointing at the public endpoint or VPN.</text></g><!--link Cfe to Cbe--><g class="link" data-entity-1="ent0004" data-entity-2="ent0005" data-link-type="association" data-source-line="23" id="lnk13"><path d="M105.34,285.3169 C101.62,300.2169 100.22,317.9169 108,331.9769 C126.97,366.2769 162.1,391.0269 195.52,407.9969" fill="none" id="Cfe-Cbe" style="stroke:#181818;stroke-width:1;"/><text fill="#000000" font-family="sans-serif" font-size="13" lengthAdjust="spacing" textLength="119.9897" x="109" y="328.0438">bridge iot-network</text></g><!--link Vol to Cbe--><g class="link" data-entity-1="ent0006" data-entity-2="ent0005" data-link-type="association" data-source-line="24" id="lnk14"><path d="M380.23,273.6769 C360.55,305.4369 320.78,369.6069 297.06,407.8669" fill="none" id="Vol-Cbe" style="stroke:#181818;stroke-width:1;stroke-dasharray:7,7;"/></g><!--link DC to Cfe--><g class="link" data-entity-1="ent0003" data-entity-2="ent0004" data-link-type="association" data-source-line="25" id="lnk15"><path d="M177.54,139.1969 C164.85,162.9769 146.43,197.5169 133.24,222.2469" fill="none" id="DC-Cfe" style="stroke:#181818;stroke-width:1;stroke-dasharray:7,7;"/></g><!--link DC to Cbe--><g class="link" data-entity-1="ent0003" data-entity-2="ent0005" data-link-type="association" data-source-line="26" id="lnk16"><path d="M204.86,139.1969 C210.07,150.9069 215.83,164.8869 220,177.8869 C246.15,259.3569 264.73,358.8269 273.07,408.0369" fill="none" id="DC-Cbe" style="stroke:#181818;stroke-width:1;stroke-dasharray:7,7;"/></g><!--link Agen to Net--><g class="link" data-entity-1="ent0008" data-entity-2="ent0012" data-link-type="association" data-source-line="28" id="lnk17"><path d="M694,459.5569 C694,485.2969 694,531.2569 694,558.6569" fill="none" id="Agen-Net" style="stroke:#181818;stroke-width:1;stroke-dasharray:7,7;"/></g><!--link Cbe to Net--><g class="link" data-entity-1="ent0005" data-entity-2="ent0012" data-link-type="association" data-source-line="29" id="lnk18"><path d="M363.54,471.1869 C409.02,487.2769 465.94,507.1669 517,524.2769 C551.42,535.8169 589.77,548.1569 621.95,558.3769" fill="none" id="Cbe-Net" style="stroke:#181818;stroke-width:1;stroke-dasharray:7,7;"/><text fill="#000000" font-family="sans-serif" font-size="13" font-weight="bold" lengthAdjust="spacing" textLength="73.0679" x="518" y="520.3438">api/ingest</text><text fill="#000000" font-family="sans-serif" font-size="13" lengthAdjust="spacing" textLength="24.4575" x="595.2002" y="520.3438">and</text><text fill="#000000" font-family="sans-serif" font-size="13" font-weight="bold" lengthAdjust="spacing" textLength="28.4185" x="623.79" y="520.3438">GET</text><text fill="#000000" font-family="sans-serif" font-size="13" lengthAdjust="spacing" textLength="29.2817" x="656.3408" y="520.3438">data</text></g><!--link Sysd to Agen--><g class="link" data-entity-1="ent0009" data-entity-2="ent0008" data-link-type="association" data-source-line="30" id="lnk19"><path d="M692.3,281.8269 C692.7,319.5069 693.44,386.7069 693.79,419.5369" fill="none" id="Sysd-Agen" style="stroke:#181818;stroke-width:1;stroke-dasharray:7,7;"/><text fill="#000000" font-family="sans-serif" font-size="13" lengthAdjust="spacing" textLength="128.229" x="693.82" y="328.0438">start / restart agent</text></g><!--link Img to Net--><g class="link" data-entity-1="ent0011" data-entity-2="ent0012" data-link-type="association" data-source-line="31" id="lnk20"><path d="M964.46,459.7069 C907.21,485.3769 805.53,530.9669 744.48,558.3469" fill="none" id="Img-Net" style="stroke:#181818;stroke-width:1;stroke-dasharray:7,7;"/><text fill="#000000" font-family="sans-serif" font-size="13" lengthAdjust="spacing" textLength="242.5566" x="851.5" y="520.3438">same HTTP contract if remote deploy</text></g><!--link Cloud to GMN21--><g class="link" data-entity-1="ent0010" data-entity-2="ent0022" data-link-type="association" data-source-line="34" id="lnk23"><path d="M1157,483.5519 C1157,506.5069 1157,534.0669 1157,554.0069" fill="none" id="Cloud-GMN21" style="stroke:#181818;stroke-width:1;stroke-dasharray:7,7;"/></g><?plantuml-src NLFBRjim4BppAnO-EMhyG7e9qbDgfqc0833oGWy10afQsKGeaY1NJeIYG4_zWA9Vc2_fahGIk1TXkTePxiuimxCoJdhPGjZ8shueiuP6we12a2ADi4IdRT-Y8NZxzHVmLRPEOu2njfNKiBJLC_f3m7gDXs0TAMiuNMdRrGT265iZZ9QuHMrT8cbbjL46Ho03Ss_XXm2GdbGZAu9HdUYWigsp0H_Dk6A2MSvETjbft-g3Z5ymE5_HU6i8JSrGGv8ly8_cvFDyFd_x_UTudgeN3RwNbv8P_wi-dW-59UurjRMwQn4633F2TBOx9S23rUBdCEoD3Av4xtjOAPZnPo7zzrJ6v_rfjsYsy0bSLseLDazELTA_FjKREZgQkZvXJjTezZ2X3uHj3PrHnFfa5wm7ZwqbpBhSzg7-Q6WHlO3nuCt1epbVh21dRph3FPuw1sTcFTYIV-stcdq6rSercp-3G99K1MMdTDRWibt7AvFnCBf6Uh7-6SPNfzTSVSdUU8EKs-EVGh0RCE65CvEeDvn0wHNl42XB4vFHWdM5wJJviLoag7cFE2UYEF4G2ID93fchAAHJCzvb35GK8DcreZW_k-EubYH552XM9uAJE8mdRjDZZdX6Gu8d-c0CaZVWukvkbLR6HqrKinCTwlH6ejvyA2sHRS4sMKTMyTkmcx6FOOjQsVEJKmu2nlT7gFilN4iRZ7koMmbMl0kiTr6ixhzUNTvUFDtVN1K5rpch3CN7AYbX4g02Pav_uaOyhAwd8buLsnB_0000?></g></svg>