<?plantuml 1.2026.2?><svg xmlns="http://www.w3.org/2000/svg" xmlns:xlink="http://www.w3.org/1999/xlink" contentStyleType="text/css" data-diagram-type="SEQUENCE" height="675px" preserveAspectRatio="none" style="width:838px;height:675px;background:#FFFFFF;" version="1.1" viewBox="0 0 838 675" width="838px" zoomAndPan="magnify"><title>Secuencia &#8212; ingesta en el borde y consumo en el panel</title><defs/><g><text fill="#000000" font-family="sans-serif" font-size="14" font-weight="bold" lengthAdjust="spacing" textLength="438.1631" x="196.1897" y="27.9951">Secuencia &#8212; ingesta en el borde y consumo en el panel</text><g><title>API Flask</title><rect fill="#FFFFFF" height="87.3984" style="stroke:#181818;stroke-width:1;" width="10" x="295.105" y="224.2891"/></g><g><title>API Flask</title><rect fill="#FFFFFF" height="87.3984" style="stroke:#181818;stroke-width:1;" width="10" x="295.105" y="437.2188"/></g><g><title>SPA React</title><rect fill="#FFFFFF" height="176.7969" style="stroke:#181818;stroke-width:1;" width="10" x="576.5396" y="383.9531"/></g><rect fill="none" height="133.6641" style="stroke:#000000;stroke-width:1.5;" width="418.1377" x="246.1875" y="398.9531"/><g class="participant-lifeline" data-entity-uid="part1" data-qualified-name="Pub" id="part1-lifeline"><g><title>Publicador</title><rect fill="#000000" fill-opacity="0.00000" height="443.8594" width="8" x="40.7329" y="134.8906"/><line style="stroke:#181818;stroke-width:0.5;stroke-dasharray:5,5;" x1="44" x2="44" y1="134.8906" y2="578.75"/></g></g><g class="participant-lifeline" data-entity-uid="part2" data-qualified-name="Api" id="part2-lifeline"><g><title>API Flask</title><rect fill="#000000" fill-opacity="0.00000" height="443.8594" width="8" x="296.105" y="134.8906"/><line style="stroke:#181818;stroke-width:0.5;stroke-dasharray:5,5;" x1="299.1875" x2="299.1875" y1="134.8906" y2="578.75"/></g></g><g class="participant-lifeline" data-entity-uid="part3" data-qualified-name="Db" id="part3-lifeline"><g><title>SQLite</title><rect fill="#000000" fill-opacity="0.00000" height="443.8594" width="8" x="468.9048" y="134.8906"/><line style="stroke:#181818;stroke-width:0.5;stroke-dasharray:5,5;" x1="472.0557" x2="472.0557" y1="134.8906" y2="578.75"/></g></g><g class="participant-lifeline" data-entity-uid="part4" data-qualified-name="Spa" id="part4-lifeline"><g><title>SPA React</title><rect fill="#000000" fill-opacity="0.00000" height="443.8594" width="8" x="577.5396" y="134.8906"/><line style="stroke:#181818;stroke-width:0.5;stroke-dasharray:5,5;" x1="580.7539" x2="580.7539" y1="134.8906" y2="578.75"/></g></g><g class="participant-lifeline" data-entity-uid="part5" data-qualified-name="User" id="part5-lifeline"><g><title>Usuario</title><rect fill="#000000" fill-opacity="0.00000" height="443.8594" width="8" x="792.9404" y="134.8906"/><line style="stroke:#181818;stroke-width:0.5;stroke-dasharray:5,5;" x1="796.3384" x2="796.3384" y1="134.8906" y2="578.75"/></g></g><g class="participant participant-head" data-entity-uid="part1" data-qualified-name="Pub" id="part1-head"><text fill="#000000" font-family="sans-serif" font-size="14" lengthAdjust="spacing" textLength="73.4658" x="5" y="115.292">Publicador</text><text fill="#000000" font-family="sans-serif" font-size="14" lengthAdjust="spacing" textLength="63.0479" x="10.209" y="131.5889">(Pi / ESP)</text><ellipse cx="44.7329" cy="50.7969" fill="#E2E2F0" rx="8" ry="8" style="stroke:#181818;stroke-width:0.5;"/><path d="M44.7329,58.7969 L44.7329,85.7969 M31.7329,66.7969 L57.7329,66.7969 M44.7329,85.7969 L31.7329,100.7969 M44.7329,85.7969 L57.7329,100.7969" fill="none" style="stroke:#181818;stroke-width:0.5;"/></g><g class="participant participant-tail" data-entity-uid="part1" data-qualified-name="Pub" id="part1-tail"><text fill="#000000" font-family="sans-serif" font-size="14" lengthAdjust="spacing" textLength="73.4658" x="5" y="590.7451">Publicador</text><text fill="#000000" font-family="sans-serif" font-size="14" lengthAdjust="spacing" textLength="63.0479" x="10.209" y="607.042">(Pi / ESP)</text><ellipse cx="44.7329" cy="618.8438" fill="#E2E2F0" rx="8" ry="8" style="stroke:#181818;stroke-width:0.5;"/><path d="M44.7329,626.8438 L44.7329,653.8438 M31.7329,634.8438 L57.7329,634.8438 M44.7329,653.8438 L31.7329,668.8438 M44.7329,653.8438 L57.7329,668.8438" fill="none" style="stroke:#181818;stroke-width:0.5;"/></g><g class="participant participant-head" data-entity-uid="part2" data-qualified-name="Api" id="part2-head"><rect fill="#E2E2F0" height="46.5938" rx="2.5" ry="2.5" style="stroke:#181818;stroke-width:0.5;" width="87.835" x="256.1875" y="87.2969"/><text fill="#000000" font-family="sans-serif" font-size="14" lengthAdjust="spacing" textLength="62.5215" x="268.8442" y="107.292">API Flask</text><text fill="#000000" font-family="sans-serif" font-size="14" lengthAdjust="spacing" textLength="73.835" x="263.1875" y="123.5889">/api/ingest</text></g><g class="participant participant-tail" data-entity-uid="part2" data-qualified-name="Api" id="part2-tail"><rect fill="#E2E2F0" height="46.5938" rx="2.5" ry="2.5" style="stroke:#181818;stroke-width:0.5;" width="87.835" x="256.1875" y="577.75"/><text fill="#000000" font-family="sans-serif" font-size="14" lengthAdjust="spacing" textLength="62.5215" x="268.8442" y="597.7451">API Flask</text><text fill="#000000" font-family="sans-serif" font-size="14" lengthAdjust="spacing" textLength="73.835" x="263.1875" y="614.042">/api/ingest</text></g><g class="participant participant-head" data-entity-uid="part3" data-qualified-name="Db" id="part3-head"><text fill="#000000" font-family="sans-serif" font-size="14" lengthAdjust="spacing" textLength="45.6982" x="447.0557" y="131.5889">SQLite</text><path d="M454.9048,82.5938 C454.9048,72.5938 472.9048,72.5938 472.9048,72.5938 C472.9048,72.5938 490.9048,72.5938 490.9048,82.5938 L490.9048,108.5938 C490.9048,118.5938 472.9048,118.5938 472.9048,118.5938 C472.9048,118.5938 454.9048,118.5938 454.9048,108.5938 L454.9048,82.5938" fill="#E2E2F0" style="stroke:#181818;stroke-width:0.5;"/><path d="M454.9048,82.5938 C454.9048,92.5938 472.9048,92.5938 472.9048,92.5938 C472.9048,92.5938 490.9048,92.5938 490.9048,82.5938" fill="none" style="stroke:#181818;stroke-width:0.5;"/></g><g class="participant participant-tail" data-entity-uid="part3" data-qualified-name="Db" id="part3-tail"><text fill="#000000" font-family="sans-serif" font-size="14" lengthAdjust="spacing" textLength="45.6982" x="447.0557" y="590.7451">SQLite</text><path d="M454.9048,604.0469 C454.9048,594.0469 472.9048,594.0469 472.9048,594.0469 C472.9048,594.0469 490.9048,594.0469 490.9048,604.0469 L490.9048,630.0469 C490.9048,640.0469 472.9048,640.0469 472.9048,640.0469 C472.9048,640.0469 454.9048,640.0469 454.9048,630.0469 L454.9048,604.0469" fill="#E2E2F0" style="stroke:#181818;stroke-width:0.5;"/><path d="M454.9048,604.0469 C454.9048,614.0469 472.9048,614.0469 472.9048,614.0469 C472.9048,614.0469 490.9048,614.0469 490.9048,604.0469" fill="none" style="stroke:#181818;stroke-width:0.5;"/></g><g class="participant participant-head" data-entity-uid="part4" data-qualified-name="Spa" id="part4-head"><rect fill="#E2E2F0" height="46.5938" rx="2.5" ry="2.5" style="stroke:#181818;stroke-width:0.5;" width="145.5713" x="508.7539" y="87.2969"/><text fill="#000000" font-family="sans-serif" font-size="14" lengthAdjust="spacing" textLength="71.4629" x="545.8081" y="107.292">SPA React</text><text fill="#000000" font-family="sans-serif" font-size="14" lengthAdjust="spacing" textLength="131.5713" x="515.7539" y="123.5889">(useRealtimeData)</text></g><g class="participant participant-tail" data-entity-uid="part4" data-qualified-name="Spa" id="part4-tail"><rect fill="#E2E2F0" height="46.5938" rx="2.5" ry="2.5" style="stroke:#181818;stroke-width:0.5;" width="145.5713" x="508.7539" y="577.75"/><text fill="#000000" font-family="sans-serif" font-size="14" lengthAdjust="spacing" textLength="71.4629" x="545.8081" y="597.7451">SPA React</text><text fill="#000000" font-family="sans-serif" font-size="14" lengthAdjust="spacing" textLength="131.5713" x="515.7539" y="614.042">(useRealtimeData)</text></g><g class="participant participant-head" data-entity-uid="part5" data-qualified-name="User" id="part5-head"><text fill="#000000" font-family="sans-serif" font-size="14" lengthAdjust="spacing" textLength="53.2041" x="767.3384" y="131.5889">Usuario</text><ellipse cx="796.9404" cy="67.0938" fill="#E2E2F0" rx="8" ry="8" style="stroke:#181818;stroke-width:0.5;"/><path d="M796.9404,75.0938 L796.9404,102.0938 M783.9404,83.0938 L809.9404,83.0938 M796.9404,102.0938 L783.9404,117.0938 M796.9404,102.0938 L809.9404,117.0938" fill="none" style="stroke:#181818;stroke-width:0.5;"/></g><g class="participant participant-tail" data-entity-uid="part5" data-qualified-name="User" id="part5-tail"><text fill="#000000" font-family="sans-serif" font-size="14" lengthAdjust="spacing" textLength="53.2041" x="767.3384" y="590.7451">Usuario</text><ellipse cx="796.9404" cy="602.5469" fill="#E2E2F0" rx="8" ry="8" style="stroke:#181818;stroke-width:0.5;"/><path d="M796.9404,610.5469 L796.9404,637.5469 M783.9404,618.5469 L809.9404,618.5469 M796.9404,637.5469 L783.9404,652.5469 M796.9404,637.5469 L809.9404,652.5469" fill="none" style="stroke:#181818;stroke-width:0.5;"/></g><g><title>API Flask</title><rect fill="#FFFFFF" height="87.3984" style="stroke:#181818;stroke-width:1;" width="10" x="295.105" y="224.2891"/></g><g><title>API Flask</title><rect fill="#FFFFFF" height="87.3984" style="stroke:#181818;stroke-width:1;" width="10" x="295.105" y="437.2188"/></g><g><title>SPA React</title><rect fill="#FFFFFF" height="176.7969" style="stroke:#181818;stroke-width:1;" width="10" x="576.5396" y="383.9531"/></g><rect fill="#EEEEEE" height="3" style="stroke:#EEEEEE;stroke-width:1;" width="831.5425" x="0" y="165.457"/><line style="stroke:#000000;stroke-width:1;" x1="0" x2="831.5425" y1="165.457" y2="165.457"/><line style="stroke:#000000;stroke-width:1;" x1="0" x2="831.5425" y1="168.457" y2="168.457"/><rect fill="#EEEEEE" height="23.1328" style="stroke:#000000;stroke-width:2;" width="146.1519" x="342.6953" y="154.8906"/><text fill="#000000" font-family="sans-serif" font-size="13" font-weight="bold" lengthAdjust="spacing" textLength="127.626" x="348.6953" y="170.9575">Ingesta peri&#243;dica</text><g class="message" data-entity-1="part1" data-entity-2="part2" id="msg1"><polygon fill="#181818" points="283.105,220.2891,293.105,224.2891,283.105,228.2891,287.105,224.2891" style="stroke:#181818;stroke-width:1;"/><line style="stroke:#181818;stroke-width:1;" x1="44.7329" x2="289.105" y1="224.2891" y2="224.2891"/><text fill="#000000" font-family="sans-serif" font-size="13" lengthAdjust="spacing" textLength="106.958" x="116.4399" y="204.0903">POST /api/ingest</text><text fill="#000000" font-family="sans-serif" font-size="13" lengthAdjust="spacing" textLength="231.3721" x="54.2329" y="219.2231">(device_id, sensor, data, metadata)</text></g><g class="message" data-entity-1="part2" data-entity-2="part3" id="msg2"><polygon fill="#181818" points="460.9048,249.4219,470.9048,253.4219,460.9048,257.4219,464.9048,253.4219" style="stroke:#181818;stroke-width:1;"/><line style="stroke:#181818;stroke-width:1;" x1="305.105" x2="466.9048" y1="253.4219" y2="253.4219"/><text fill="#000000" font-family="sans-serif" font-size="13" lengthAdjust="spacing" textLength="129.9937" x="324.0081" y="248.356">INSERT sensor_data</text></g><g class="message" data-entity-1="part3" data-entity-2="part2" id="msg3"><polygon fill="#181818" points="316.105,278.5547,306.105,282.5547,316.105,286.5547,312.105,282.5547" style="stroke:#181818;stroke-width:1;"/><line style="stroke:#181818;stroke-width:1;stroke-dasharray:2,2;" x1="310.105" x2="471.9048" y1="282.5547" y2="282.5547"/><text fill="#000000" font-family="sans-serif" font-size="13" lengthAdjust="spacing" textLength="15.4819" x="381.2639" y="277.4888">ok</text></g><g class="message" data-entity-1="part2" data-entity-2="part1" id="msg4"><polygon fill="#181818" points="55.7329,307.6875,45.7329,311.6875,55.7329,315.6875,51.7329,311.6875" style="stroke:#181818;stroke-width:1;"/><line style="stroke:#181818;stroke-width:1;stroke-dasharray:2,2;" x1="49.7329" x2="299.105" y1="311.6875" y2="311.6875"/><text fill="#000000" font-family="sans-serif" font-size="13" lengthAdjust="spacing" textLength="60.9883" x="141.9248" y="306.6216">200 JSON</text></g><rect fill="#EEEEEE" height="3" style="stroke:#EEEEEE;stroke-width:1;" width="831.5425" x="0" y="340.2539"/><line style="stroke:#000000;stroke-width:1;" x1="0" x2="831.5425" y1="340.2539" y2="340.2539"/><line style="stroke:#000000;stroke-width:1;" x1="0" x2="831.5425" y1="343.2539" y2="343.2539"/><rect fill="#EEEEEE" height="23.1328" style="stroke:#000000;stroke-width:2;" width="194.1274" x="318.7075" y="329.6875"/><text fill="#000000" font-family="sans-serif" font-size="13" font-weight="bold" lengthAdjust="spacing" textLength="175.6016" x="324.7075" y="345.7544">Consulta desde el panel</text><g class="message" data-entity-1="part5" data-entity-2="part4" id="msg5"><polygon fill="#181818" points="597.5396,379.9531,587.5396,383.9531,597.5396,387.9531,593.5396,383.9531" style="stroke:#181818;stroke-width:1;"/><line style="stroke:#181818;stroke-width:1;" x1="591.5396" x2="795.9404" y1="383.9531" y2="383.9531"/><text fill="#000000" font-family="sans-serif" font-size="13" lengthAdjust="spacing" textLength="191.4009" x="596.0396" y="378.8872">abre la p&#225;gina del dispositivo</text></g><path d="M246.1875,398.9531 L322.8115,398.9531 L322.8115,406.0859 L312.8115,416.0859 L246.1875,416.0859 L246.1875,398.9531" fill="#EEEEEE" style="stroke:#000000;stroke-width:1.5;"/><rect fill="none" height="133.6641" style="stroke:#000000;stroke-width:1.5;" width="418.1377" x="246.1875" y="398.9531"/><text fill="#000000" font-family="sans-serif" font-size="13" font-weight="bold" lengthAdjust="spacing" textLength="31.624" x="261.1875" y="412.02">loop</text><text fill="#000000" font-family="sans-serif" font-size="11" font-weight="bold" lengthAdjust="spacing" textLength="119.8882" x="337.8115" y="411.1636">[polling (p. ej., 5s)]</text><g class="message" data-entity-1="part4" data-entity-2="part2" id="msg6"><polygon fill="#181818" points="316.105,433.2188,306.105,437.2188,316.105,441.2188,312.105,437.2188" style="stroke:#181818;stroke-width:1;"/><line style="stroke:#181818;stroke-width:1;" x1="310.105" x2="575.5396" y1="437.2188" y2="437.2188"/><text fill="#000000" font-family="sans-serif" font-size="13" lengthAdjust="spacing" textLength="177.4805" x="352.082" y="432.1528">GET /api/latest/{device_id}</text></g><g class="message" data-entity-1="part2" data-entity-2="part3" id="msg7"><polygon fill="#181818" points="460.9048,462.3516,470.9048,466.3516,460.9048,470.3516,464.9048,466.3516" style="stroke:#181818;stroke-width:1;"/><line style="stroke:#181818;stroke-width:1;" x1="305.105" x2="466.9048" y1="466.3516" y2="466.3516"/><text fill="#000000" font-family="sans-serif" font-size="13" lengthAdjust="spacing" textLength="143.7998" x="317.105" y="461.2856">SELECT &#250;ltima lectura</text></g><g class="message" data-entity-1="part3" data-entity-2="part2" id="msg8"><polygon fill="#181818" points="316.105,491.4844,306.105,495.4844,316.105,499.4844,312.105,495.4844" style="stroke:#181818;stroke-width:1;"/><line style="stroke:#181818;stroke-width:1;stroke-dasharray:2,2;" x1="310.105" x2="471.9048" y1="495.4844" y2="495.4844"/><text fill="#000000" font-family="sans-serif" font-size="13" lengthAdjust="spacing" textLength="50.375" x="363.8174" y="490.4185">registro</text></g><g class="message" data-entity-1="part2" data-entity-2="part4" id="msg9"><polygon fill="#181818" points="564.5396,520.6172,574.5396,524.6172,564.5396,528.6172,568.5396,524.6172" style="stroke:#181818;stroke-width:1;"/><line style="stroke:#181818;stroke-width:1;stroke-dasharray:2,2;" x1="300.105" x2="570.5396" y1="524.6172" y2="524.6172"/><text fill="#000000" font-family="sans-serif" font-size="13" lengthAdjust="spacing" textLength="32.043" x="422.3008" y="519.5513">JSON</text></g><g class="message" data-entity-1="part4" data-entity-2="part5" id="msg10"><polygon fill="#181818" points="784.9404,556.75,794.9404,560.75,784.9404,564.75,788.9404,560.75" style="stroke:#181818;stroke-width:1;"/><line style="stroke:#181818;stroke-width:1;stroke-dasharray:2,2;" x1="581.5396" x2="790.9404" y1="560.75" y2="560.75"/><text fill="#000000" font-family="sans-serif" font-size="13" lengthAdjust="spacing" textLength="111.6108" x="633.4346" y="555.6841">gr&#225;ficos / valores</text></g><?plantuml-src NLBDQXin4BxhAGQVOd3YKEZ5u8A9tU2I9jkiSmk4yUvaCxKiRJLQbr8AVOY-G9uXjrxz9dsIZjO_iNCJqZVVtqWMx6eCk0IXRmsvWZwJ25OqibmvACX52aPUKKzO-k_iAdX4AsHCv6W9SYhIC2Fy-_q7z9aa8f03iZ3teIJu0OLtqYpzzhP6HzOOBA8FqCcQkUL2gSEzEyaO-Z39isu7K42VZ6f7BbXd8dH6sHG-MfJ5lUjZpVsDMeiTrMnAZ3X78UZaNwuuKlimViEHPoEu9HLNkKP8ZpRoaiOwkr7DQznvkvC60_ls-awq3JCSmdGRiQR0wvTIlSDmQDGhd7v8Dc00sKq-WmE7AbNIYWjwuBAdTJlneGV9RW-M536TkacKLnYfpPA8b6yyLxhfTJwvdMtd7XBOwFtfNiulDd2zI3O6yExy73xbDzUcf2FIPFyYxSAg_v94bxFRHygG8YPHRK19S1u8hEPSFrVi4jv2oL9xOQNqhtPJOTRx6cflRVeV9_KPqDUp7hoNhe6MRk_rSh9jnkgenFxFVJ6_57ha5k2mX7noDRcOmVflMXU2fI8s0HLqL4MWYYK6lnlUfsdh07XJ2BdIjFOKrwOVG1NMpuzSUD6Vk4Bh0ybXZIdiVm00?></g></svg>