<?plantuml 1.2026.2?><svg xmlns="http://www.w3.org/2000/svg" xmlns:xlink="http://www.w3.org/1999/xlink" contentStyleType="text/css" data-diagram-type="DESCRIPTION" height="401px" preserveAspectRatio="none" style="width:1022px;height:401px;background:#FFFFFF;" version="1.1" viewBox="0 0 1022 401" width="1022px" zoomAndPan="magnify"><title>Componentes &#8212; backend Flask (`code/backend/server.py` e produ&#231;&#227;o)</title><defs/><g><g class="title" data-source-line="5"><text fill="#000000" font-family="sans-serif" font-size="14" font-weight="bold" lengthAdjust="spacing" textLength="558.4619" x="224.955" y="22.9951">Componentes &#8212; backend Flask (`code/backend/server.py` e produ&#231;&#227;o)</text></g><!--entity Flask--><g class="entity" data-qualified-name="Flask" data-source-line="7" id="ent0002"><rect fill="#F1F1F1" height="52.5938" rx="2.5" ry="2.5" style="stroke:#181818;stroke-width:0.5;" width="87.7236" x="592.26" y="44.2969"/><text fill="#000000" font-family="sans-serif" font-size="14" lengthAdjust="spacing" textLength="67.7236" x="602.26" y="67.292">Flask App</text><text fill="#000000" font-family="sans-serif" font-size="14" lengthAdjust="spacing" textLength="50.333" x="602.26" y="83.5889">(CORS)</text></g><!--entity HTTP--><g class="entity" data-qualified-name="HTTP" data-source-line="9" id="ent0003"><ellipse cx="548.12" cy="70.5969" fill="#F1F1F1" rx="8" ry="8" style="stroke:#181818;stroke-width:0.5;"/><text fill="#000000" font-family="sans-serif" font-size="14" lengthAdjust="spacing" textLength="84.1982" x="506.0209" y="100.592">HTTP / JSON</text></g><!--entity Ingest--><g class="entity" data-qualified-name="Ingest" data-source-line="11" id="ent0004"><rect fill="#F1F1F1" height="52.5938" rx="2.5" ry="2.5" style="stroke:#181818;stroke-width:0.5;" width="146.2461" x="7" y="174.1969"/><text fill="#000000" font-family="sans-serif" font-size="14" lengthAdjust="spacing" textLength="126.2461" x="17" y="197.192">Rotas de ingest&#227;o</text><text fill="#000000" font-family="sans-serif" font-size="14" lengthAdjust="spacing" textLength="115.1855" x="17" y="213.4889">POST /api/ingest</text></g><!--entity Query--><g class="entity" data-qualified-name="Query" data-source-line="12" id="ent0005"><rect fill="#F1F1F1" height="85.1875" rx="2.5" ry="2.5" style="stroke:#181818;stroke-width:0.5;" width="166.9453" x="461.65" y="157.8969"/><text fill="#000000" font-family="sans-serif" font-size="14" lengthAdjust="spacing" textLength="125.3164" x="471.65" y="180.892">Rotas de consulta</text><text fill="#000000" font-family="sans-serif" font-size="14" lengthAdjust="spacing" textLength="138.1475" x="471.65" y="197.1889">GET /api/latest/{id}</text><text fill="#000000" font-family="sans-serif" font-size="14" lengthAdjust="spacing" textLength="146.9453" x="471.65" y="213.4857">GET /api/history/{id}</text><text fill="#000000" font-family="sans-serif" font-size="14" lengthAdjust="spacing" textLength="132.9385" x="471.65" y="229.7826">GET /api/stats/{id}</text></g><!--entity Clear--><g class="entity" data-qualified-name="Clear" data-source-line="13" id="ent0006"><rect fill="#F1F1F1" height="52.5938" rx="2.5" ry="2.5" style="stroke:#181818;stroke-width:0.5;" width="126.6748" x="663.79" y="174.1969"/><text fill="#000000" font-family="sans-serif" font-size="14" lengthAdjust="spacing" textLength="86.2217" x="673.79" y="197.192">Manuten&#231;&#227;o</text><text fill="#000000" font-family="sans-serif" font-size="14" lengthAdjust="spacing" textLength="106.6748" x="673.79" y="213.4889">POST /api/clear</text></g><!--entity LegacyUi--><g class="entity" data-qualified-name="LegacyUi" data-source-line="14" id="ent0007"><rect fill="#F1F1F1" height="52.5938" rx="2.5" ry="2.5" style="stroke:#181818;stroke-width:0.5;" width="190.502" x="825.87" y="174.1969"/><text fill="#000000" font-family="sans-serif" font-size="14" lengthAdjust="spacing" textLength="129.6572" x="835.87" y="197.192">UI legada opcional</text><text fill="#000000" font-family="sans-serif" font-size="14" lengthAdjust="spacing" textLength="170.502" x="835.87" y="213.4889">GET / (dashboard HTML)</text></g><!--entity Repo--><g class="entity" data-qualified-name="Repo" data-source-line="15" id="ent0008"><rect fill="#F1F1F1" height="52.5938" rx="2.5" ry="2.5" style="stroke:#181818;stroke-width:0.5;" width="189.3125" x="518.47" y="335.0869"/><text fill="#000000" font-family="sans-serif" font-size="14" lengthAdjust="spacing" textLength="169.3125" x="528.47" y="358.082">Camada de persist&#234;ncia</text><text fill="#000000" font-family="sans-serif" font-size="14" lengthAdjust="spacing" textLength="46.9697" x="528.47" y="374.3789">sqlite3</text></g><!--entity File--><g class="entity" data-qualified-name="File" data-source-line="16" id="ent0009"><path d="M743.13,348.7269 C743.13,338.7269 805.1207,338.7269 805.1207,338.7269 C805.1207,338.7269 867.1114,338.7269 867.1114,348.7269 L867.1114,374.0238 C867.1114,384.0238 805.1207,384.0238 805.1207,384.0238 C805.1207,384.0238 743.13,384.0238 743.13,374.0238 L743.13,348.7269" fill="#F1F1F1" style="stroke:#181818;stroke-width:0.5;"/><path d="M743.13,348.7269 C743.13,358.7269 805.1207,358.7269 805.1207,358.7269 C805.1207,358.7269 867.1114,358.7269 867.1114,348.7269" fill="none" style="stroke:#181818;stroke-width:0.5;"/><text fill="#000000" font-family="sans-serif" font-size="14" lengthAdjust="spacing" textLength="103.9814" x="753.13" y="375.722">Arquivo SQLite</text></g><g class="entity" data-qualified-name="GMN20" data-source-line="31" id="ent0021"><path d="M187.8,172.7869 L187.8,196.4869 L153.72,200.4869 L187.8,204.4869 L187.8,228.1853 A0,0 0 0 0 187.8,228.1853 L426.4484,228.1853 A0,0 0 0 0 426.4484,228.1853 L426.4484,182.7869 L416.4484,172.7869 L187.8,172.7869 A0,0 0 0 0 187.8,172.7869" fill="#FEFFDD" style="stroke:#181818;stroke-width:0.5;"/><path d="M416.4484,172.7869 L416.4484,182.7869 L426.4484,182.7869 L416.4484,172.7869" fill="#FEFFDD" style="stroke:#181818;stroke-width:0.5;"/><text fill="#000000" font-family="sans-serif" font-size="13" lengthAdjust="spacing" textLength="183.4917" x="193.8" y="189.8538">Suporta payload "aninhado"</text><text fill="#000000" font-family="sans-serif" font-size="13" lengthAdjust="spacing" textLength="217.6484" x="193.8" y="204.9866">(sensor + data) e formato legado</text><text fill="#000000" font-family="sans-serif" font-size="13" lengthAdjust="spacing" textLength="83.4907" x="193.8" y="220.1194">no n&#237;vel raiz.</text></g><!--link HTTP to Flask--><g class="link" data-entity-1="ent0003" data-entity-2="ent0002" data-link-type="association" data-source-line="18" id="lnk10"><path d="M557.4,70.5969 C568.88,70.5969 580.36,70.5969 591.84,70.5969" fill="none" id="HTTP-Flask" style="stroke:#181818;stroke-width:1;"/></g><!--link Flask to Ingest--><g class="link" data-entity-1="ent0002" data-entity-2="ent0004" data-link-type="association" data-source-line="19" id="lnk11"><path d="M591.86,91.1269 C585.97,93.2969 579.95,95.2869 574.12,96.8969 C399.04,145.0869 344.06,105.7269 170.12,157.8969 C156.44,161.9969 142.17,167.8169 129.13,173.7969" fill="none" id="Flask-Ingest" style="stroke:#181818;stroke-width:1;"/></g><!--link Flask to Query--><g class="link" data-entity-1="ent0002" data-entity-2="ent0005" data-link-type="association" data-source-line="20" id="lnk12"><path d="M617.93,97.1769 C605.63,114.4469 589.12,137.6569 574.93,157.5969" fill="none" id="Flask-Query" style="stroke:#181818;stroke-width:1;"/></g><!--link Flask to Clear--><g class="link" data-entity-1="ent0002" data-entity-2="ent0006" data-link-type="association" data-source-line="21" id="lnk13"><path d="M654.32,97.1769 C670.19,119.4769 693.1,151.6669 708.96,173.9569" fill="none" id="Flask-Clear" style="stroke:#181818;stroke-width:1;"/></g><!--link Flask to LegacyUi--><g class="link" data-entity-1="ent0002" data-entity-2="ent0007" data-link-type="association" data-source-line="22" id="lnk14"><path d="M680.34,91.4369 C729.67,113.5769 809.63,149.4569 863.75,173.7469" fill="none" id="Flask-LegacyUi" style="stroke:#181818;stroke-width:1;"/></g><!--link Ingest to Repo--><g class="link" data-entity-1="ent0004" data-entity-2="ent0008" data-link-type="dependency" data-source-line="23" id="lnk15"><path d="M131.83,227.2469 C144.2,232.8969 157.49,238.5269 170.12,243.0869 C287.64,285.4269 421.7757,318.6427 512.4757,339.0027" fill="none" id="Ingest-to-Repo" style="stroke:#181818;stroke-width:1;"/><polygon fill="#181818" points="518.33,340.3169,510.4246,334.4428,513.4514,339.2217,508.6724,342.2485,518.33,340.3169" style="stroke:#181818;stroke-width:1;"/><text fill="#000000" font-family="sans-serif" font-size="13" lengthAdjust="spacing" textLength="46.998" x="363.24" y="293.6538">INSERT</text></g><!--link Query to Repo--><g class="link" data-entity-1="ent0005" data-entity-2="ent0008" data-link-type="dependency" data-source-line="24" id="lnk16"><path d="M557.72,243.5369 C563.96,262.6469 572.08,285.3469 581.12,305.0869 C585.7,315.0669 588.4646,320.4331 593.8846,329.5931" fill="none" id="Query-to-Repo" style="stroke:#181818;stroke-width:1;"/><polygon fill="#181818" points="596.94,334.7569,595.7994,324.9743,594.3938,330.4537,588.9144,329.0482,596.94,334.7569" style="stroke:#181818;stroke-width:1;"/><text fill="#000000" font-family="sans-serif" font-size="13" lengthAdjust="spacing" textLength="48.9404" x="582.12" y="293.6538">SELECT</text></g><!--link Clear to Repo--><g class="link" data-entity-1="ent0006" data-entity-2="ent0008" data-link-type="dependency" data-source-line="25" id="lnk17"><path d="M708.81,227.0169 C687.6,256.5769 656.3482,300.1322 635.0782,329.7722" fill="none" id="Clear-to-Repo" style="stroke:#181818;stroke-width:1;"/><polygon fill="#181818" points="631.58,334.6469,640.077,329.6669,634.4951,330.5846,633.5774,325.0027,631.58,334.6469" style="stroke:#181818;stroke-width:1;"/><text fill="#000000" font-family="sans-serif" font-size="13" lengthAdjust="spacing" textLength="182.9077" x="674.54" y="293.6538">DELETE / rotinas de limpeza</text></g><!--link LegacyUi to Repo--><g class="link" data-entity-1="ent0007" data-entity-2="ent0008" data-link-type="dependency" data-source-line="26" id="lnk18"><path d="M914.14,226.8869 C906.23,250.7769 890.96,285.6869 865.12,305.0869 C814.58,343.0269 787.85,321.5169 726.12,335.0869 C720.23,336.3769 720.0287,336.4224 713.9187,337.7724" fill="none" id="LegacyUi-to-Repo" style="stroke:#181818;stroke-width:1;stroke-dasharray:7,7;"/><polygon fill="#181818" points="708.06,339.0669,717.711,341.031,712.9422,337.9881,715.9851,333.2194,708.06,339.0669" style="stroke:#181818;stroke-width:1;"/><text fill="#000000" font-family="sans-serif" font-size="13" lengthAdjust="spacing" textLength="99.6328" x="900.9247" y="286.1538">n&#227;o obrigat&#243;rio</text><text fill="#000000" font-family="sans-serif" font-size="13" lengthAdjust="spacing" textLength="114.7021" x="893.39" y="301.2866">(rotas separadas)</text></g><!--link Repo to File--><g class="link" data-entity-1="ent0008" data-entity-2="ent0009" data-link-type="association" data-source-line="28" id="lnk19"><path d="M708,361.3769 C719.63,361.3769 731.27,361.3769 742.9,361.3769" fill="none" id="Repo-File" style="stroke:#181818;stroke-width:1;"/></g><?plantuml-src RLFDZX914BxtKrIu2370mPi7amsokWRsXs5FhiaMqmLqQBfwkvirh37n8Nm33oOcddm4tiGdiQO7DWFnDlFLLrzLVTNr0WQyzkp89OfmEnw1PfXXkIAduTnYN44xK1H6n9cnHgCMdX5sS1WxAgwCynXm3UL1fqXRIn2eJEWMbXgKk4JDdurRm1nj9AMIIK9jTl3ts_VJylSbQ-hlmNway4YXvxVtGE03wytkv-u7TvHwRW0-rfbdtj-vzk1gKdG-0SPQJwdS_1nBWjRxwVGQ-l2XkBfiLOpg_qXemabWJJBnWcAIGdVk-ggOGX-zwTTWrhx8d_zDBSMxZKruvzuDzuaMPTRK_sBqrmQwD35ns9x2CM6A6SoLRZOKjir2OtIRH2xRqEokj8GXfmoghsRAxGLOMg16O5yQTcZtzQ2jCIvdZ46B6UDHRTn8kENsrZGb1hYkycK-Jo5AvxjVhZGoP7om9j6hd3WXpqfZmXb6iViiF6pC8qDnCn9ATlpSo0jHUG_T_OBgvNNbfRZkmTSZh7RW2AedF8AUcwubzl2Rt1EyXelBOZYPggnr6Yk6e-5WghBeQUojnAP3SIfmCgxUi3LhJq-e3YMXrtlcEzaAy2oO1QRTds1aHUsGdqQawYfqTKKgaxj2MgRktXF7IQweGe3d1ny0Yetda10yRYsZXXOwuwgxQacm7Sb53l0IAjCxSY5p3cjCNA-RXU9OMlhzI1O2cgUUgWwjAgN-0G00?></g></svg>